<svg width="1400" height="400" viewBox="0 0 1400 400" fill="none" xmlns="http://www.w3.org/2000/svg">
<path d="M1249.1 299.9C1249.1 299.2 1249.4 298.9 1250.1 298.9H1292.2V274.9C1292.2 274.2 1292.5 273.9 1293.2 273.9H1298.6C1299.3 273.9 1299.6 274.2 1299.6 274.9V306.7C1299.6 307.4 1299.3 307.7 1298.6 307.7H1250.1C1249.4 307.7 1249.1 307.4 1249.1 306.7V299.9Z" fill="#3AB8BC"/>
<path d="M1256.5 226.5L1298.5 214.5C1299.3 214.4 1299.6 214.6 1299.6 215.3V222.4C1299.6 223 1299.3 223.2 1298.5 223.4L1284.3 227.5V247.2L1298.5 251.4C1299.3 251.6 1299.6 251.7 1299.6 252.3V259.4C1299.6 260.2 1299.3 260.4 1298.5 260.2L1256.5 247.9C1249.6 245.8 1248.8 244.6 1248.8 237.4C1248.8 229.6 1249.6 228.5 1256.5 226.5ZM1258.7 239.8L1277.2 245.1V229.5L1258.7 234.7C1256.3 235.4 1256 235.5 1256 237.4C1256 239 1256.2 239.1 1258.7 239.8Z" fill="#3AB8BC"/>
<path d="M1262.7 158.3C1269.4 158.3 1273.1 160.2 1274 165.2H1274.2C1275.1 158.8 1279.7 157 1286.1 157C1297 157 1299.8 163.1 1299.8 175C1299.8 179.7 1299.6 189.9 1299.2 195.4C1299.1 196.2 1299 196.4 1298.3 196.4H1250.2C1249.5 196.4 1249.3 196.2 1249.3 195.4C1248.9 189.9 1248.8 181.6 1248.8 176.8C1248.8 164.2 1252 158.3 1262.7 158.3ZM1256.1 187.5H1271.1V179.7C1271.1 170.6 1270.6 167.2 1263.8 167.2C1257.5 167.2 1256.2 170.5 1256.2 177.7L1256.1 187.5ZM1277.5 187.5H1292.5V175.2C1292.5 168.8 1291.2 165.9 1285.4 165.9C1278.9 165.9 1277.6 169.3 1277.6 175.1L1277.5 187.5Z" fill="#3AB8BC"/>
<path d="M1249.8 105.9C1249.9 105.1 1250.3 104.8 1250.9 104.8H1255C1255.7 104.8 1256.1 105.1 1256.1 105.8V121.8C1256.1 127 1257.7 129.6 1261.2 129.6H1262.3C1265.1 129.6 1266.7 128.6 1268.2 125L1273.5 110.9C1276 104.4 1279.4 102.2 1285.8 102.2H1287.8C1297.7 102.2 1299.8 110.4 1299.8 121.2C1299.8 126.6 1299.5 132.1 1298.6 138.2C1298.5 138.9 1298.1 139.2 1297.4 139.2H1293.4C1292.7 139.2 1292.3 138.9 1292.3 138.1V118.8C1292.3 113.7 1290.8 111.1 1287.4 111.1H1286.3C1283.3 111.1 1281.5 112.3 1280 116.2L1274.4 131.2C1272.4 136.8 1268.5 138.5 1262.1 138.5H1260.6C1250.7 138.5 1248.7 130.8 1248.7 119.8C1248.8 114.1 1249.1 111.4 1249.8 105.9Z" fill="#3AB8BC"/>
<path d="M473.602 103.6H403.102V189.7C403.102 206.2 410.002 222.2 421.902 233.5L499.402 307.1H601.802L473.602 185.4V103.6Z" fill="url(#paint0_linear_702_78)"/>
<path d="M774.102 103.6C752.802 103.6 732.102 103.6 710.602 103.6V113.5C710.602 150 710.702 186.6 710.602 223.2C710.502 235.8 701.702 244.1 690.102 241.5C685.602 240.4 681.102 236.9 677.702 233.5C636.002 192.1 594.602 150.5 553.002 109C551.002 107 548.902 105.1 547.702 104C532.302 119.1 517.502 133.6 501.102 149.6C506.202 154.1 511.702 158.3 516.602 163.2C556.002 202.3 595.202 241.7 634.502 280.9C654.302 300.7 678.202 309.6 705.902 304.8C747.702 297.6 774.402 265.5 774.702 223C774.902 185.7 774.702 148.3 774.702 110.9C774.702 108.6 774.302 106.3 774.102 103.6Z" fill="url(#paint1_linear_702_78)"/>
<path d="M308.299 113.1C308.299 149.4 308.299 185.7 308.399 222C308.399 230.2 305.999 236.7 298.199 240.3C291.099 243.6 283.899 241.7 276.699 234.5C234.999 192.8 193.199 151 151.499 109.3C149.299 107.1 146.999 105.1 145.099 103.3C129.799 118.5 115.099 133.1 100.199 147.9C101.099 148.9 101.999 150.2 103.199 151.5C146.799 195.1 190.099 239 234.099 282.2C259.399 307.1 289.799 312.3 322.699 299.4C353.199 287.5 372.199 257.6 372.299 223.8C372.299 186.4 372.299 149 372.299 111.6C372.299 109 372.299 106.4 372.299 103.6C350.499 103.6 329.699 103.6 308.299 103.6V113.1Z" fill="url(#paint2_linear_702_78)"/>
<path d="M877.199 103.6H806.699V189.7C806.699 206.2 813.599 222.2 825.499 233.5L902.999 307.1H1005.4L877.199 185.4V103.6Z" fill="url(#paint3_linear_702_78)"/>
<path d="M1179.8 136C1162.6 115.4 1137.2 103.5 1110.4 103.5L951 103.4V189.5C951 206 957.9 222 969.8 233.3L1041.8 301.7C1045.3 305 1049.9 306.8 1054.7 306.8H1109.1H1109.5C1137.9 306.7 1164.9 293 1181.9 270.1L1183.7 267.7C1213.2 228.2 1211.6 173.9 1179.8 136ZM1137.8 232.4C1131.1 241.5 1120.4 246.9 1109 246.9H1070L1010.5 183.3V163.7H1110.1C1122.8 163.7 1134.7 170.3 1141 181.4C1150 197.3 1149 217.2 1137.8 232.4Z" fill="url(#paint4_linear_702_78)"/>
<defs>
<linearGradient id="paint0_linear_702_78" x1="502.402" y1="84.1243" x2="502.402" y2="311.899" gradientUnits="userSpaceOnUse">
<stop offset="0.2316" stop-color="#823DFF"/>
<stop offset="0.7112" stop-color="#3EA8DD"/>
<stop offset="0.9965" stop-color="#12ED9E"/>
</linearGradient>
<linearGradient id="paint1_linear_702_78" x1="637.896" y1="84.1243" x2="637.896" y2="311.899" gradientUnits="userSpaceOnUse">
<stop offset="0.2316" stop-color="#823DFF"/>
<stop offset="0.7112" stop-color="#3EA8DD"/>
<stop offset="0.9965" stop-color="#12ED9E"/>
</linearGradient>
<linearGradient id="paint2_linear_702_78" x1="236.199" y1="84.1243" x2="236.199" y2="311.899" gradientUnits="userSpaceOnUse">
<stop offset="0.2316" stop-color="#823DFF"/>
<stop offset="0.7112" stop-color="#3EA8DD"/>
<stop offset="0.9965" stop-color="#12ED9E"/>
</linearGradient>
<linearGradient id="paint3_linear_702_78" x1="906.099" y1="84.1243" x2="906.099" y2="311.899" gradientUnits="userSpaceOnUse">
<stop offset="0.2316" stop-color="#823DFF"/>
<stop offset="0.7112" stop-color="#3EA8DD"/>
<stop offset="0.9965" stop-color="#12ED9E"/>
</linearGradient>
<linearGradient id="paint4_linear_702_78" x1="1077.9" y1="84.1243" x2="1077.9" y2="311.899" gradientUnits="userSpaceOnUse">
<stop offset="0.2316" stop-color="#823DFF"/>
<stop offset="0.7112" stop-color="#3EA8DD"/>
<stop offset="0.9965" stop-color="#12ED9E"/>
</linearGradient>
</defs>
</svg>
